<?xml version="1.0" encoding="utf-8"?>
<!-- Generator: Adobe Illustrator 19.0.0, SVG Export Plug-In . SVG Version: 6.00 Build 0)  -->
<svg version="1.1" id="Calque_1" xmlns="http://www.w3.org/2000/svg" xmlns:xlink="http://www.w3.org/1999/xlink" x="0px" y="0px"
	 viewBox="0 0 44 44" enable-background="new 0 0 44 44" xml:space="preserve">
<g id="XMLID_2_">
	<defs>
		<circle id="XMLID_1_" cx="22" cy="22" r="21.7"/>
	</defs>
	<use xlink:href="#XMLID_1_"  overflow="visible" fill="#EA523D"/>
	<clipPath id="XMLID_4_">
		<use xlink:href="#XMLID_1_"  overflow="visible"/>
	</clipPath>
</g>
<path id="XMLID_35_" fill="#FFFFFF" d="M10.1,31.6c0-6.4,0-12.7,0-19.1c0,0,0-0.1,0-0.1c0.3-1.1,1-1.8,2.1-2.1c0.1,0,0.1,0,0.2-0.1
	c6.4,0,12.7,0,19.1,0c0,0,0.1,0,0.1,0c1.3,0.3,2.2,1.4,2.2,2.7c0,6.1,0,12.2,0,18.2c0,1.5-1.2,2.7-2.7,2.7c-6.1,0-12.2,0-18.3,0
	c-1.2,0-2.3-0.8-2.6-2C10.2,31.7,10.2,31.6,10.1,31.6z M29.1,20.2c0.5,2.3,0.1,4.4-1.3,6.2c-1.4,1.9-3.3,2.8-5.7,2.9
	c-2.1,0-3.9-0.7-5.3-2.2c-1.9-1.9-2.5-4.3-1.9-6.9c-0.7,0-1.3,0-2,0c0,0.1,0,0.2,0,0.2c0,3.2,0,6.4,0,9.7c0,0.7,0.4,1,1,1
	c5.4,0,10.8,0,16.2,0c0.7,0,1-0.4,1-1c0-3.2,0-6.4,0-9.6c0-0.1,0-0.2,0-0.3C30.4,20.2,29.8,20.2,29.1,20.2z M17.4,22
	c0,2.5,2,4.5,4.5,4.6c2.5,0,4.6-2,4.6-4.6c0-2.5-2-4.6-4.6-4.6C19.5,17.5,17.4,19.5,17.4,22z M28.8,17.4c0.4,0,0.9,0,1.3,0
	c0.6,0,0.9-0.4,0.9-0.9c0-0.9,0-1.8,0-2.6c0-0.6-0.4-1-1-1c-0.9,0-1.8,0-2.6,0c-0.6,0-0.9,0.4-0.9,0.9c0,0.9,0,1.8,0,2.7
	c0,0.6,0.4,0.9,0.9,0.9C28,17.4,28.4,17.4,28.8,17.4z"/>
</svg>
