<?xml version="1.0" encoding="utf-8"?>
<!-- Generator: Adobe Illustrator 19.0.0, SVG Export Plug-In . SVG Version: 6.00 Build 0)  -->
<svg version="1.1" id="Calque_1" xmlns="http://www.w3.org/2000/svg" xmlns:xlink="http://www.w3.org/1999/xlink" x="0px" y="0px"
	 viewBox="0 0 200 40" enable-background="new 0 0 200 40" xml:space="preserve">
<g>
	<polygon id="XMLID_9_" fill="#EA523D" points="19.1,27.4 25.8,11.6 24.1,11.6 19.1,23.5 14.8,11.6 10.3,23.5 5.7,11.6 4,11.6 
		10.3,27.4 14.8,15.6 	"/>
	<path fill="#EA523D" d="M50.5,13.8c-1.6-1.6-3.5-2.4-5.7-2.4c-2.3,0-4.2,0.8-5.8,2.4c-1.6,1.6-2.4,3.5-2.4,5.7
		c0,2.5,0.9,4.5,2.7,6.1c1.6,1.4,3.4,2.1,5.5,2.1c2.3,0,4.3-0.8,5.9-2.4c1.6-1.6,2.4-3.5,2.4-5.7C53,17.3,52.1,15.4,50.5,13.8z
		 M49.4,24.3c-1.3,1.3-2.9,1.9-4.7,1.9c-1.7,0-3.3-0.6-4.6-1.9c-1.3-1.3-2-2.9-2-4.9c0-1.9,0.6-3.5,1.9-4.7c1.3-1.3,2.9-1.9,4.7-1.9
		c1.9,0,3.4,0.7,4.7,1.9c1.3,1.3,1.9,2.9,1.9,4.8C51.4,21.4,50.7,23,49.4,24.3z"/>
	<path id="XMLID_6_" fill="#EA523D" d="M159.2,19.6c0,2.2,0.8,4.1,2.4,5.7c1.6,1.6,3.5,2.3,5.7,2.3c1.4,0,2.8-0.3,4-1v-1.8
		c-0.1,0.1-0.3,0.2-0.4,0.3c-0.4,0.3-0.8,0.5-1.1,0.6c-0.7,0.3-1.5,0.5-2.4,0.5c-1.8,0-3.4-0.7-4.7-1.9c-1.3-1.3-1.9-2.9-1.9-4.7
		c0-1.9,0.6-3.5,1.9-4.8c1.3-1.3,2.8-2,4.6-2c1.4,0,2.7,0.4,4,1.3v-1.7c-1.2-0.7-2.5-1-3.8-1c-2.6,0-4.7,0.9-6.3,2.9
		C159.9,15.8,159.2,17.6,159.2,19.6z"/>
	<polygon id="XMLID_5_" fill="#EA523D" points="196,13.1 196,11.7 187.8,11.7 187.8,27.3 196,27.3 196,25.9 189.4,25.9 189.4,19.4 
		195.8,19.4 195.8,18 189.4,18 189.4,13.1 	"/>
	<polygon id="XMLID_4_" fill="#EA523D" points="74.9,27.4 80.1,16.2 81.8,27.4 83.4,27.4 80.7,11.6 75,24 69.5,11.6 66.4,27.4 
		68,27.4 70,16.2 	"/>
	<polygon id="XMLID_3_" fill="#EA523D" points="142.8,11.7 141.3,11.7 141.3,24 129.2,11.3 129.2,27.4 130.7,27.4 130.7,15.1 
		142.8,27.7 	"/>
	<g>
		<path id="XMLID_34_" fill="#EA523D" d="M105.5,11.3l-7.5,16h1.7l1.8-4h7.7l1.7,4h1.7L105.5,11.3z M102.2,21.9l3.3-7.3l3.2,7.3
			H102.2z"/>
	</g>
</g>
</svg>
